/* XPM */
static char *_e92e90ff81946f0fe3ad9c6f760e0denHYEKxDbMgCyQ0Ks[] = {
/* columns rows colors chars-per-pixel */
"40 40 2 1 ",
"  c None",
". c black",
/* pixels */
"                                        ",
"                                        ",
"                                        ",
"                                        ",
"   .................................    ",
"  ...................................   ",
"  ...................................   ",
"  ...................................   ",
"  .....   ...........................   ",
"  ....     ..........................   ",
"  ...       .........................   ",
"  ...       ...     ..     ..     ...   ",
"  ...       ...     ..     ..     ...   ",
"  ....     ..........................   ",
"  .....   ...........................   ",
"  ...................................   ",
"  ...................................   ",
"  ...................................   ",
"  ...................................   ",
"  ...   ...  ...   .   ...  ...   ...   ",
"  ...   ...  ...   .   ...  ...   ...   ",
"  ...   ...  ...   .   ...  ...   ...   ",
"  ...   ...  ...   .   ...  ...   ...   ",
"  ...   ...  ...   .   ...  ...   ...   ",
"  ...   ...  ...   .   ...  ...   ...   ",
"  ...   ...  ...   .   ...  ...   ...   ",
"  ...   ...  ...   .   ...  ...   ...   ",
"  ...    .    .    .    .    .    ...   ",
"  ...    .    .    .    .    .    ...   ",
"  ...    .    .    .    .    .    ...   ",
"  ...    .    .    .    .    .    ...   ",
"  ...    .    .    .    .    .    ...   ",
"  ...    .    .    .    .    .    ...   ",
"  ...    .    .    .    .    .    ...   ",
"  ...................................   ",
"   .................................    ",
"                                        ",
"                                        ",
"                                        ",
"                                        "
};
